<svg width="39" height="38" viewBox="0 0 39 38" fill="none" xmlns="http://www.w3.org/2000/svg">
<path d="M33.9707 31.0451V36.0787C33.9707 37.1395 33.1257 37.9996 32.0836 37.9996H6.92228C5.88018 37.9996 5.03516 37.1395 5.03516 36.0787V25.2816C5.55095 25.2232 6.07588 25.1934 6.60776 25.1934C6.7126 25.1934 6.81744 25.1948 6.92228 25.1976C8.69964 25.2361 10.3967 25.6095 11.9545 26.2563C12.9156 26.6561 13.8241 27.1598 14.6657 27.7546C15.5114 28.3515 16.2893 29.0396 16.9868 29.8058C16.9868 29.8058 19.3387 32.101 20.8407 32.8771C21.2216 33.0749 21.6151 33.2514 22.0191 33.4057C23.2912 33.8917 24.6687 34.1577 26.1078 34.1577C26.4258 34.1577 26.7403 34.1449 27.0514 34.1185C28.5974 33.9927 30.0581 33.5594 31.3749 32.8771C31.616 32.7526 31.8523 32.6195 32.0836 32.4787C32.7601 32.0661 33.392 31.5851 33.9707 31.0451Z" fill="url(#paint0_radial_0_87)"/>
<path d="M33.9708 21.1887V28.6862C33.3921 29.2396 32.7602 29.7325 32.0836 30.1554C31.8523 30.2998 31.6161 30.4362 31.3749 30.5638C30.0581 31.2631 28.5974 31.7072 27.0514 31.8362C26.7403 31.8632 26.4258 31.8763 26.1078 31.8763C25.5969 31.8763 25.0944 31.842 24.6016 31.7757C23.7049 31.6547 22.8396 31.4271 22.0191 31.1056C21.6151 30.9473 21.2216 30.7665 20.8407 30.5638C19.3387 29.7683 16.9868 27.4159 16.9868 27.4159C16.7569 27.1571 16.5185 26.907 16.2711 26.6664C15.7693 26.1756 15.2325 25.7235 14.6657 25.3137C13.8242 24.7042 12.9156 24.1879 11.9546 23.7781C10.3967 23.1153 8.69964 22.7325 6.92228 22.6931C6.81744 22.6901 6.7126 22.6887 6.60776 22.6887C6.07588 22.6887 5.55095 22.7193 5.03516 22.7791V20.8636C5.50277 20.7075 5.9843 20.5763 6.47705 20.4698C6.57979 20.4473 6.68253 20.4268 6.786 20.4072C8.53401 20.0703 10.2701 20.0863 11.9245 20.4064C12.9449 20.6048 13.9346 20.9183 14.8775 21.3368C15.5121 21.6183 16.1258 21.9479 16.7121 22.3227C17.0015 22.5057 17.2832 22.7004 17.5586 22.9053C17.5586 22.9053 20.3186 24.7114 21.9436 25.1731C22.3559 25.2912 22.7767 25.3852 23.2031 25.4545C24.069 25.596 24.9601 25.6361 25.8617 25.5654C26.3573 25.526 26.8563 25.4531 27.3568 25.3452C27.6678 25.2781 27.9732 25.1987 28.2724 25.1068C29.7618 24.654 31.1058 23.9102 32.2597 22.9469C32.4708 22.7712 32.6756 22.5875 32.874 22.3972C33.2669 22.0199 33.6332 21.6167 33.9708 21.1887Z" fill="url(#paint1_radial_0_87)"/>
<path d="M39 16.6483C39 16.7115 38.9979 16.7749 38.9937 16.8368C38.9839 16.9706 38.9636 17.1021 38.935 17.2295V17.2302C38.8777 17.4792 38.7854 17.7141 38.6631 17.9289C38.5876 18.0619 38.5009 18.1872 38.4031 18.3039V18.3046C38.0718 18.7016 37.6237 18.9954 37.1129 19.1291C36.9689 19.1662 36.8207 19.1918 36.6684 19.2031C36.6076 19.2074 36.5461 19.2095 36.4838 19.2095H33.9677V21.4485C33.6302 21.8662 33.2639 22.2596 32.8711 22.6274C32.6726 22.8131 32.4679 22.9924 32.2568 23.1638C31.1029 24.1036 29.7588 24.8293 28.2695 25.2711C27.9703 25.3607 27.6649 25.4383 27.3539 25.5037C26.8534 25.6091 26.3544 25.6802 25.8589 25.7186C24.9572 25.7876 24.0661 25.7485 23.2002 25.6105C22.7738 25.5429 22.353 25.4511 21.9407 25.3358C20.3157 24.8855 17.5557 23.1232 17.5557 23.1232C17.2803 22.9232 16.9986 22.7333 16.7093 22.5547C16.1229 22.189 15.5092 21.8674 14.8746 21.5928C13.9317 21.1844 12.942 20.8785 11.9216 20.685C10.2673 20.3726 8.53112 20.357 6.78311 20.6857C6.67965 20.7049 6.57691 20.7249 6.47417 20.7469C5.98141 20.8508 5.49988 20.9789 5.03227 21.1311V19.2095H2.5161C2.48886 19.2095 2.46161 19.2087 2.43503 19.2081C2.40358 19.2073 2.37213 19.2052 2.34069 19.2031C2.32671 19.2023 2.31345 19.2017 2.30012 19.2002C2.28614 19.1988 2.27287 19.1973 2.25889 19.1959C2.2344 19.1938 2.20998 19.1909 2.1855 19.1874C2.16311 19.1845 2.14007 19.1809 2.11703 19.1774C2.09818 19.1745 2.07928 19.171 2.06109 19.1674C2.04639 19.1653 2.0324 19.1618 2.01849 19.1596C1.98356 19.1532 1.94857 19.1454 1.91437 19.1362C1.86546 19.1241 1.81655 19.1098 1.7683 19.0942C1.73961 19.0856 1.71171 19.0757 1.68375 19.0657C1.66976 19.0607 1.65716 19.0565 1.64252 19.0508C1.60405 19.0365 1.54188 19.0102 1.50413 18.9938C1.49921 18.9917 1.49363 18.9888 1.48877 18.9867C1.44472 18.9668 1.40074 18.9448 1.35734 18.922C1.3385 18.912 1.32032 18.9021 1.30213 18.8921C1.22946 18.8509 1.15882 18.8067 1.09035 18.7583C1.06239 18.7392 1.03514 18.7192 1.0079 18.6979C0.993915 18.6879 0.980654 18.6772 0.967327 18.6658C0.942184 18.6467 0.916975 18.626 0.892554 18.6046C0.861108 18.5769 0.830385 18.5492 0.799596 18.5207C0.769529 18.4922 0.740184 18.4631 0.711562 18.4325C0.682217 18.4019 0.654251 18.3713 0.627007 18.3393C0.599763 18.308 0.573175 18.2753 0.54731 18.2425C0.521444 18.2091 0.496301 18.1756 0.471814 18.1415C0.468991 18.1379 0.466891 18.1343 0.464133 18.1308C0.443192 18.1002 0.422184 18.0689 0.401964 18.0369C0.399864 18.034 0.398485 18.0312 0.396384 18.0283C0.376099 17.9956 0.355814 17.9622 0.336973 17.9288C0.335594 17.9266 0.33415 17.9252 0.333493 17.9231C0.321611 17.9018 0.309729 17.8797 0.297846 17.8577C0.293645 17.8491 0.288787 17.8406 0.285242 17.8321C0.238435 17.741 0.196485 17.6478 0.160838 17.5511C0.143376 17.5041 0.128014 17.4572 0.113309 17.4095C0.103527 17.3782 0.0944679 17.3468 0.0867214 17.3148C0.079697 17.2906 0.0734604 17.2657 0.0678803 17.2409C0.0623002 17.2159 0.0567201 17.1896 0.0510743 17.164C0.0510743 17.1626 0.0503522 17.1611 0.0503522 17.159C0.0447721 17.1327 0.0398485 17.1063 0.035647 17.08C0.0349249 17.0779 0.0349248 17.075 0.0342684 17.0722C0.030789 17.0509 0.0279662 17.0302 0.0252089 17.0096C0.0202853 16.9768 0.0161495 16.9434 0.0133266 16.91C0.011948 16.9001 0.0112258 16.8894 0.0105037 16.8794C0.00840297 16.8623 0.00702435 16.8445 0.00630222 16.8267C0.00347934 16.794 0.00210074 16.7613 0.00137861 16.7278C0.000656477 16.7015 0 16.6745 0 16.6482C0 16.6219 0.000722145 16.5955 0.00282289 16.5692C0.0126045 16.2498 0.0789749 15.9453 0.19294 15.6657C0.34531 15.2928 0.59694 14.9705 0.903714 14.7145L1.26366 14.4156L1.42161 14.284L1.6802 14.0691L5.54314 10.854L6.91933 9.73277L11.9516 5.63478L15.7258 2.56128L16.9839 1.53678L18.1203 0.611184L18.1217 0.610449L18.5494 0.261822C18.8283 0.0953597 19.1533 0 19.5 0C19.5272 0 19.5545 0.000735051 19.5818 0.00213838C19.7117 0.00715028 19.839 0.0263291 19.9606 0.0576034C20.1346 0.101708 20.2996 0.171407 20.4505 0.261822L20.8783 0.610449L22.0161 1.53678L23.2134 2.56128L24.3226 3.41504L26.4396 5.13887L27.0483 5.63478V5.18297H27.0491C27.0483 5.12249 27.0483 5.12249 27.0638 4.80233V4.8016C27.1532 3.88669 27.6215 3.08559 28.3058 2.56121C28.7712 2.2055 29.336 1.97856 29.9503 1.93085C30.0307 1.92377 30.1117 1.92089 30.1935 1.92089C30.9008 1.92089 31.555 2.15926 32.0807 2.56048V2.56121C32.0807 2.56121 32.0807 2.56121 32.0814 2.56121C32.7656 3.08553 33.2339 3.88663 33.3234 4.8016V4.80233C33.3311 4.88273 33.336 4.96385 33.3381 5.04565C33.3388 5.07124 33.3388 5.0969 33.3388 5.12249V10.7572L33.8498 11.2011L35.6977 12.8062L37.113 13.9303L37.7365 14.4262C37.7372 14.4262 37.7372 14.4269 37.7378 14.4269L38.2942 14.8694C38.4067 14.9875 38.5074 15.1163 38.5955 15.255C38.8511 15.6558 39 16.1346 39 16.6483Z" fill="url(#paint2_linear_0_87)"/>
<defs>
<radialGradient id="paint0_radial_0_87" cx="0" cy="0" r="1" gradientUnits="userSpaceOnUse" gradientTransform="translate(19.5033 31.5962) rotate(7.37866) scale(22.742 15.4516)">
<stop stop-color="#41BEF5"/>
<stop offset="0.1914" stop-color="#3DB4F3"/>
<stop offset="0.5208" stop-color="#3398EE"/>
<stop offset="0.946" stop-color="#226BE6"/>
<stop offset="1" stop-color="#2065E5"/>
</radialGradient>
<radialGradient id="paint1_radial_0_87" cx="0" cy="0" r="1" gradientUnits="userSpaceOnUse" gradientTransform="translate(19.503 26.0196) scale(30.7184 19.1149)">
<stop stop-color="#41BEF5"/>
<stop offset="0.1216" stop-color="#3EB6F4"/>
<stop offset="0.3135" stop-color="#369FEF"/>
<stop offset="0.5503" stop-color="#287AE9"/>
<stop offset="0.6702" stop-color="#2065E5"/>
</radialGradient>
<linearGradient id="paint2_linear_0_87" x1="19.5" y1="25.752" x2="19.5" y2="-0.0767215" gradientUnits="userSpaceOnUse">
<stop stop-color="#2065E5"/>
<stop offset="0.1289" stop-color="#2879E9"/>
<stop offset="0.3566" stop-color="#3397EE"/>
<stop offset="0.5809" stop-color="#3BADF2"/>
<stop offset="0.798" stop-color="#3FBAF4"/>
<stop offset="1" stop-color="#41BEF5"/>
</linearGradient>
</defs>
</svg>
